<?xml version="1.0" encoding="utf-8" ?>
<svg baseProfile="tiny" height="947" version="1.2" width="720" xmlns="http://www.w3.org/2000/svg" xmlns:ev="http://www.w3.org/2001/xml-events" xmlns:xlink="http://www.w3.org/1999/xlink"><defs /><path d="M 1,855 0,856 1,855 4,855 5,856 7,856 8,855 23,855 24,856 34,856 35,855 36,855 37,856 40,856 41,855 42,856 43,855 44,856 54,856 55,855 56,856 59,856 60,855 63,855 64,856 67,856 68,855 72,855 73,856 84,856 85,855 91,855 92,856 94,856 95,855 103,855 104,856 107,856 108,855 111,855 112,856 126,856 127,855 128,855 129,856 130,856 131,855 135,855 136,856 150,856 151,855 161,855 162,856 163,855 166,855 167,856 168,856 169,855 170,856 173,856 174,855 175,856 178,856 179,855 180,855 181,856 183,856 184,855 185,856 187,856 188,855 189,855 190,856 191,856 192,855 209,855 210,856 211,855 215,855 216,856 225,856 226,855 242,855 243,856 244,855 247,855 248,856 256,856 257,855 258,855 259,856 262,856 263,855 266,855 267,856 286,856 287,855 289,855 290,856 294,856 295,855 296,856 297,855 303,855 304,856 320,856 321,855 344,855 345,856 351,856 352,855 355,855 356,856 376,856 377,855 382,855 383,856 390,856 391,855 394,855 395,856 409,856 410,855 411,855 412,856 413,855 414,855 415,856 417,856 418,855 423,855 424,856 430,856 431,855 434,855 435,856 436,856 437,855 447,855 448,856 459,856 460,855 464,855 465,856 476,856 477,855 481,855 482,856 484,856 485,855 487,855 488,856 489,856 490,855 493,855 494,856 496,856 497,855 500,855 501,856 502,855 503,856 511,856 512,855 513,856 514,855 517,855 518,856 519,856 520,855 532,855 533,856 534,856 535,855 536,855 537,856 538,855 541,855 542,856 543,855 552,855 553,856 559,856 560,855 561,856 562,855 568,855 569,856 581,856 582,855 602,855 603,856 606,856 607,855 610,855 611,856 612,856 613,855 628,855 629,856 638,856 639,855 664,855 665,856 666,855 674,855 675,856 681,856 682,855 690,855 691,856 692,855 693,855 694,856 696,856 697,855 707,855 708,856 709,855 712,855 713,856 719,856 713,856 712,855 709,855 708,856 707,855 697,855 696,856 694,856 693,855 692,855 691,856 690,855 682,855 681,856 675,856 674,855 666,855 665,856 664,855 639,855 638,856 629,856 628,855 613,855 612,856 611,856 610,855 607,855 606,856 603,856 602,855 582,855 581,856 569,856 568,855 562,855 561,856 560,855 559,856 553,856 552,855 543,855 542,856 541,855 538,855 537,856 536,855 535,855 534,856 533,856 532,855 520,855 519,856 518,856 517,855 514,855 513,856 512,855 511,856 503,856 502,855 501,856 500,855 497,855 496,856 494,856 493,855 490,855 489,856 488,856 487,855 485,855 484,856 482,856 481,855 477,855 476,856 465,856 464,855 460,855 459,856 448,856 447,855 437,855 436,856 435,856 434,855 431,855 430,856 424,856 423,855 418,855 417,856 415,856 414,855 413,855 412,856 411,855 410,855 409,856 395,856 394,855 391,855 390,856 383,856 382,855 377,855 376,856 356,856 355,855 352,855 351,856 345,856 344,855 321,855 320,856 304,856 303,855 297,855 296,856 295,855 294,856 290,856 289,855 287,855 286,856 267,856 266,855 263,855 262,856 259,856 258,855 257,855 256,856 248,856 247,855 244,855 243,856 242,855 226,855 225,856 216,856 215,855 211,855 210,856 209,855 192,855 191,856 190,856 189,855 188,855 187,856 185,856 184,855 183,856 181,856 180,855 179,855 178,856 175,856 174,855 173,856 170,856 169,855 168,856 167,856 166,855 163,855 162,856 161,855 151,855 150,856 136,856 135,855 131,855 130,856 129,856 128,855 127,855 126,856 112,856 111,855 108,855 107,856 104,856 103,855 95,855 94,856 92,856 91,855 85,855 84,856 73,856 72,855 68,855 67,856 64,856 63,855 60,855 59,856 56,856 55,855 54,856 44,856 43,855 42,856 41,855 40,856 37,856 36,855 35,855 34,856 24,856 23,855 8,855 7,856 5,856 4,855 Z" fill="black" stroke="none" /><path d="M 350,635 352,635 Z" fill="black" stroke="none" /><path d="M 408,632 409,632 Z" fill="black" stroke="none" /><path d="M 414,630 413,631 412,631 413,631 414,630 415,630 Z" fill="black" stroke="none" /><path d="M 328,629 329,629 Z" fill="black" stroke="none" /><path d="M 419,628 418,629 417,629 418,629 419,628 420,628 Z" fill="black" stroke="none" /><path d="M 440,618 439,619 Z" fill="black" stroke="none" /><path d="M 444,615 444,616 Z" fill="black" stroke="none" /><path d="M 447,613 448,613 Z" fill="black" stroke="none" /><path d="M 463,597 465,597 466,598 465,597 Z" fill="black" stroke="none" /><path d="M 469,593 468,594 469,595 470,595 469,595 468,594 Z" fill="black" stroke="none" /><path d="M 475,586 477,586 Z" fill="black" stroke="none" /><path d="M 476,584 Z" fill="black" stroke="none" /><path d="M 478,581 478,582 Z" fill="black" stroke="none" /><path d="M 489,562 488,563 Z" fill="black" stroke="none" /><path d="M 491,556 491,557 Z" fill="black" stroke="none" /><path d="M 494,547 494,548 Z" fill="black" stroke="none" /><path d="M 314,518 313,519 313,521 312,522 312,618 313,619 313,620 315,622 317,622 318,623 319,623 320,624 322,624 323,625 324,625 325,626 330,626 331,625 331,624 332,623 332,521 331,520 331,519 330,518 Z" fill="black" stroke="none" /><path d="M 377,508 376,509 375,509 375,511 374,512 374,631 375,632 375,634 387,634 388,633 392,633 393,632 393,511 392,510 392,508 Z" fill="black" stroke="none" /><path d="M 345,481 344,482 344,485 343,486 343,496 344,497 344,500 343,501 344,502 344,631 345,632 350,632 351,633 356,633 357,634 362,634 362,633 363,632 363,482 362,481 Z" fill="black" stroke="none" /><path d="M 482,459 481,460 478,460 477,461 473,461 472,462 470,462 468,464 468,469 469,470 469,472 470,473 470,475 472,477 472,479 473,480 473,482 474,483 474,486 475,487 475,490 476,491 476,495 477,496 477,526 476,527 476,531 475,532 475,536 474,537 474,540 473,541 473,543 472,544 472,547 470,549 470,551 469,552 469,553 468,554 468,556 467,557 467,558 466,559 466,560 465,561 465,562 464,563 464,567 463,568 463,583 464,584 464,594 466,594 466,593 470,589 470,588 473,585 473,584 476,581 476,580 478,578 478,577 480,575 480,574 481,573 481,572 482,571 482,570 483,569 483,567 485,565 485,564 486,563 486,561 487,560 487,559 488,558 488,557 489,556 489,554 490,553 490,551 491,550 491,548 492,547 492,544 493,543 493,540 494,539 494,536 495,535 495,531 496,530 496,521 497,520 497,502 496,501 496,492 495,491 495,487 494,486 494,483 493,482 493,479 492,478 492,476 491,475 491,472 490,471 490,470 489,469 489,467 488,466 488,464 487,463 487,462 486,461 486,460 485,459 Z" fill="black" stroke="none" /><path d="M 406,438 404,440 404,443 403,444 404,445 403,446 403,491 404,492 404,630 408,630 409,629 411,629 412,628 414,628 415,627 417,627 418,626 419,626 420,625 421,625 422,624 422,597 423,596 423,589 422,588 422,584 423,583 423,545 422,544 423,543 423,529 422,528 422,527 423,526 423,441 422,440 422,439 421,438 Z" fill="black" stroke="none" /><path d="M 362,386 361,387 354,387 353,388 347,388 346,389 343,389 342,390 339,390 338,391 336,391 335,392 333,392 332,393 330,393 329,394 328,394 327,395 325,395 324,396 322,396 321,397 319,397 317,399 316,399 315,400 314,400 313,401 312,401 311,402 310,402 309,403 308,403 306,405 305,405 304,406 303,406 301,408 300,408 297,411 296,411 293,414 292,414 291,415 290,414 290,413 291,412 290,413 290,414 291,415 281,425 280,425 280,426 273,433 273,434 270,437 270,438 268,440 268,441 266,443 266,444 264,446 264,447 263,448 263,449 261,451 261,452 260,453 260,454 259,455 259,456 258,457 258,458 257,459 257,460 256,461 256,463 255,464 255,466 254,467 254,468 253,469 253,471 252,472 252,475 251,476 251,478 250,479 250,482 249,483 249,487 248,488 248,492 247,493 247,502 246,503 246,520 247,521 247,529 248,530 248,534 249,535 249,539 250,540 250,543 251,544 251,547 252,548 252,550 253,551 253,552 254,553 254,555 255,556 255,558 256,559 256,560 257,561 257,562 258,563 258,564 259,565 259,567 261,569 261,570 262,571 262,572 263,573 263,574 265,576 265,577 267,579 267,580 269,582 269,583 272,586 272,587 278,593 278,594 285,601 286,601 287,602 288,602 289,603 291,603 292,602 294,602 295,601 296,601 300,597 300,594 301,593 301,557 300,556 278,556 275,553 275,551 274,550 274,549 273,548 273,546 272,545 272,543 271,542 271,540 270,539 270,537 269,536 269,532 268,531 268,526 267,525 267,518 266,517 266,504 267,503 267,497 268,496 268,491 269,490 269,486 270,485 270,482 271,481 271,479 272,478 272,477 273,476 273,474 274,473 274,471 275,470 275,468 277,466 277,465 279,463 279,462 280,461 280,460 281,459 281,458 282,457 282,456 285,453 285,452 286,451 286,450 291,445 291,444 303,432 304,432 307,429 308,429 311,426 312,426 315,423 316,423 318,421 319,421 320,420 321,420 323,418 324,418 325,417 326,417 327,416 328,416 329,415 330,415 331,414 332,414 333,413 335,413 336,412 338,412 339,411 341,411 342,410 344,410 345,409 349,409 350,408 353,408 354,407 363,407 364,406 381,406 382,407 390,407 391,408 394,408 395,409 400,409 402,407 403,407 410,400 410,397 411,396 411,395 410,394 410,392 409,391 407,391 406,390 403,390 402,389 398,389 397,388 392,388 391,387 383,387 382,386 Z" fill="black" stroke="none" /><path d="M 472,377 471,378 445,378 444,379 443,379 441,381 441,382 440,383 440,386 439,387 440,388 440,391 441,392 441,393 443,395 449,395 450,396 452,396 453,395 460,395 461,396 461,397 440,418 439,417 440,418 439,419 439,420 434,425 434,617 435,618 436,617 438,617 440,615 441,615 443,613 444,613 446,611 447,611 449,609 450,609 453,606 453,434 465,422 466,423 466,424 467,425 468,425 467,425 466,424 466,423 465,422 471,416 472,416 473,417 472,418 472,421 473,422 473,424 474,425 474,426 475,427 476,427 477,428 485,428 486,427 487,427 490,424 490,421 491,420 491,378 488,378 487,377 Z" fill="black" stroke="none" /><path d="M 0,135 507,135 508,136 511,136 512,135 517,135 518,136 531,136 532,135 543,135 544,136 553,136 554,135 555,136 560,136 561,135 566,135 567,136 573,136 574,135 600,135 601,136 608,136 609,135 611,135 612,136 616,136 617,135 631,135 632,136 633,135 639,135 640,136 644,136 645,135 646,135 647,136 649,136 650,135 653,135 654,136 656,136 657,135 677,135 678,136 679,135 681,135 682,136 685,136 686,135 687,135 688,136 690,136 691,135 695,135 696,136 699,136 700,135 704,135 705,136 706,136 707,135 708,135 709,136 711,136 712,135 719,135 712,135 711,136 709,136 708,135 707,135 706,136 705,136 704,135 700,135 699,136 696,136 695,135 691,135 690,136 688,136 687,135 686,135 685,136 682,136 681,135 679,135 678,136 677,135 657,135 656,136 654,136 653,135 650,135 649,136 647,136 646,135 645,135 644,136 640,136 639,135 633,135 632,136 631,135 617,135 616,136 612,136 611,135 609,135 608,136 601,136 600,135 574,135 573,136 567,136 566,135 561,135 560,136 555,136 554,135 553,136 544,136 543,135 532,135 531,136 518,136 517,135 512,135 511,136 508,136 507,135 Z" fill="black" stroke="none" /></svg>